<?xml version="1.0" encoding="UTF-8"?><svg id="Layer_1" xmlns="http://www.w3.org/2000/svg" viewBox="0 0 684 198"><rect x="370" width="8" height="198" style="fill:#1f8da8;"/><path d="M0,83c3.29-10.03,7.77-18.08,17.62-22.88,12.52-6.1,34.97-6.14,48.92-5.17,11.79.82,20.49,4.96,26.95,15.03,6.11-9.36,14.84-14.14,25.96-15.02,15.19-1.19,41.5-1.22,54.03,8.04,5.99,4.42,13.5,16.05,13.5,23.5v110.5h-38v-97.5c0-2.54-5.24-7.32-7.97-8.03-4.37-1.13-17.35-1-21.43.63-3.63,1.45-7.6,6.59-7.6,10.4v94.5h-37v-92.5c0-1.79-2.55-8.48-3.98-10.02-5.2-5.6-27.02-5.25-31.49,1.55-.6.91-2.53,5.8-2.53,6.47v94.5H0v-114Z" style="fill:#1a3554;"/><path d="M684,83v114h-37v-93.5c0-.32-1.48-5.61-1.77-6.23-1.79-3.88-6.67-5.83-10.73-6.27-6.18-.66-30.44-.97-35.79.21-3.25.72-8.71,6.09-8.71,9.29v96.5h-38v-109.5c0-12.97,11.07-25.16,22.73-29.27,14.09-4.97,54.78-4.45,70.81-3.26,18.79,1.38,33.1,9.26,38.46,28.04Z" style="fill:#1a3554;"/><path d="M433.5,55l35,86.01,33.5-86.01h40l-48.46,127.04c-9.42,20.75-42.45,20.01-51.41-.66l-47.12-126.38h38.5Z" style="fill:#1a3554;"/><path d="M278,0l75,198h-8l-21.64-54.86-95.9-.21-21.46,55.07h-8L273,0h5ZM321,135l-45.5-119.01-45.5,119.01h91Z" style="fill:#7a5aa3;"/></svg>